<?xml version="1.0" standalone="no"?>
<!DOCTYPE svg PUBLIC "-//W3C//DTD SVG 20010904//EN"
 "http://www.w3.org/TR/2001/REC-SVG-20010904/DTD/svg10.dtd">
<svg version="1.0" xmlns="http://www.w3.org/2000/svg"
 width="500.000000pt" height="500.000000pt" viewBox="0 0 500.000000 500.000000"
 preserveAspectRatio="xMidYMid meet">
<metadata>
Created by potrace 1.16, written by Peter Selinger 2001-2019
</metadata>
<g transform="translate(0.000000,500.000000) scale(0.100000,-0.100000)"
fill="#000000" stroke="none">
<path d="M1828 3809 c-14 -5 -30 -18 -35 -27 -4 -9 -10 -159 -13 -332 l-5
-315 -323 -5 c-306 -5 -324 -6 -338 -24 -10 -14 -14 -51 -14 -132 0 -95 3
-115 19 -135 l19 -24 321 -3 321 -3 0 -375 0 -374 -318 0 -319 0 -21 -23 c-20
-21 -22 -34 -22 -134 0 -94 3 -114 19 -134 l19 -24 321 -3 320 -3 3 -320 3
-321 24 -19 c20 -16 40 -19 136 -19 166 0 155 -26 155 366 l0 314 445 0 444 0
3 -321 3 -321 24 -19 c20 -16 40 -19 136 -19 166 0 155 -26 155 366 l0 313
319 3 c392 4 361 -10 361 158 0 84 -4 121 -14 136 -14 18 -32 19 -338 24
l-323 5 -3 373 -2 372 -160 0 -160 0 0 -375 0 -375 -442 2 -443 3 -3 372 -2
372 319 3 c393 4 361 -11 361 163 0 105 -3 124 -18 138 -16 15 -58 17 -338 19
l-319 3 -5 322 c-5 290 -7 324 -23 340 -14 14 -38 18 -120 20 -56 1 -114 -2
-129 -8z"/>
<path d="M3041 3724 c-70 -19 -152 -63 -144 -78 5 -9 83 -135 88 -144 1 -1 26
9 56 23 101 47 219 28 219 -36 0 -58 -46 -84 -163 -95 l-77 -7 0 -83 0 -84 50
0 c70 0 149 -19 171 -41 27 -27 25 -84 -4 -113 -44 -44 -177 -43 -299 4 l-48
18 0 -98 0 -98 68 -18 c50 -14 100 -19 197 -19 142 1 197 15 268 69 94 72 117
236 44 314 -27 30 -85 60 -134 70 l-38 8 50 23 c92 41 138 107 139 201 1 93
-49 153 -157 185 -64 19 -214 18 -286 -1z"/>
</g>
</svg>
