<svg width="615" height="667" viewBox="0 0 615 667" fill="none" xmlns="http://www.w3.org/2000/svg">
<path d="M185.067 159.092C183.2 159.759 181.067 161.492 180.4 162.692C179.867 163.892 179.067 183.892 178.667 206.959L178.385 224.733C178.17 238.234 167.275 249.125 153.775 249.334L134.933 249.625C94.1333 250.292 91.7333 250.425 89.8667 252.825C88.5333 254.692 88 259.625 88 270.425C88 283.092 88.4 285.759 90.5333 288.425C92.1354 290.449 94.5669 291.639 97.1479 291.663L135.867 292.025L153.9 292.194C167.616 292.322 178.667 303.477 178.667 317.193V342.425V367.292C178.667 381.099 167.474 392.292 153.667 392.292H136.267H97.886C95.2405 392.292 92.7171 393.405 90.9333 395.359C88.2667 398.159 88 399.892 88 413.225C88 425.759 88.4 428.425 90.5333 431.092C92.1354 433.116 94.5669 434.306 97.1479 434.33L135.867 434.692L153.999 434.862C167.623 434.99 178.636 446.003 178.763 459.626L178.933 477.759L179.295 516.477C179.319 519.058 180.51 521.49 182.533 523.092C185.2 525.225 187.867 525.625 200.667 525.625C222.8 525.625 221.333 529.092 221.333 476.825V459.959C221.333 446.152 232.526 434.959 246.333 434.959H280.667H315.099C328.815 434.959 339.97 446.01 340.098 459.725L340.267 477.759L340.629 516.477C340.653 519.058 341.843 521.49 343.867 523.092C346.533 525.225 349.2 525.625 362 525.625C384.133 525.625 382.667 529.092 382.667 476.825V459.858C382.667 446.143 393.717 434.988 407.432 434.859L425.2 434.692C477.467 434.159 473.333 436.025 473.333 413.625C473.333 402.425 472.8 397.492 471.467 395.492C469.6 393.092 467.2 392.959 426.4 392.292L407.749 392.003C394.173 391.793 383.246 380.785 383.137 367.207L382.933 341.892L382.781 313.625C382.718 301.825 373.134 292.292 361.333 292.292C349.551 292.292 340 301.843 340 313.625V342.292V367.179C340 381.03 328.738 392.241 314.887 392.178L281.067 392.025L246.631 391.792C232.969 391.7 221.912 380.656 221.801 366.994L221.6 342.025L221.467 317.324C221.393 303.557 232.465 292.321 246.232 292.191L263.867 292.025C316.267 291.492 312 293.492 312 270.292C312 256.292 311.6 253.759 309.6 251.892C307.467 249.892 301.867 249.625 264.533 249.359L246.383 249.188C232.82 249.06 221.832 238.14 221.621 224.577L221.333 206.025C220.667 167.359 220.4 162.825 218.267 160.692C216.4 158.825 213.2 158.292 202.267 158.025C194.8 157.892 187.067 158.292 185.067 159.092Z" fill="black"/>
<path d="M346.8 170.425C337.467 172.959 326.533 178.825 327.6 180.825C328.267 182.025 338.667 198.825 339.333 200.025C339.467 200.159 342.8 198.825 346.8 196.959C360.267 190.692 376 193.225 376 201.759C376 209.492 369.867 212.959 354.267 214.425L344 215.359V226.425V237.625H350.667C360 237.625 370.533 240.159 373.467 243.092C377.067 246.692 376.8 254.292 372.933 258.159C367.067 264.025 349.333 263.892 333.067 257.625L326.667 255.225V268.292V281.359L335.733 283.759C342.4 285.625 349.067 286.292 362 286.292C380.933 286.159 388.267 284.292 397.733 277.092C410.267 267.492 413.333 245.625 403.6 235.225C400 231.225 392.267 227.225 385.733 225.892L380.667 224.825L387.333 221.759C399.6 216.292 405.733 207.492 405.867 194.959C406 182.559 399.333 174.559 384.933 170.292C376.4 167.759 356.4 167.892 346.8 170.425Z" fill="black"/>
</svg>
